<mxfile host="app.diagrams.net" modified="2023-04-21T13:59:41.822Z" agent="Mozilla/5.0 (Macintosh; Intel Mac OS X 10.15; rv:109.0) Gecko/20100101 Firefox/112.0" etag="kXcJQ09LRRY-TAcuk5UC" version="21.2.1" type="github">
  <diagram name="Page-1" id="197159a0-c6a4-9194-75a8-e4174976684c">
    <mxGraphModel dx="1314" dy="797" grid="1" gridSize="10" guides="1" tooltips="1" connect="1" arrows="1" fold="1" page="1" pageScale="1.5" pageWidth="1169" pageHeight="826" background="none" math="0" shadow="0">
      <root>
        <mxCell id="0" style=";html=1;" />
        <mxCell id="1" style=";html=1;" parent="0" />
        <mxCell id="CQruWPNJxI8brHRwqnNx-1" value="" style="whiteSpace=wrap;html=1;aspect=fixed;" vertex="1" parent="1">
          <mxGeometry x="210" y="440" width="450" height="450" as="geometry" />
        </mxCell>
        <mxCell id="CQruWPNJxI8brHRwqnNx-2" value="" style="whiteSpace=wrap;html=1;aspect=fixed;" vertex="1" parent="1">
          <mxGeometry x="880" y="440" width="450" height="450" as="geometry" />
        </mxCell>
        <mxCell id="CQruWPNJxI8brHRwqnNx-3" value="MER1" style="text;html=1;strokeColor=none;fillColor=none;align=center;verticalAlign=middle;whiteSpace=wrap;rounded=0;" vertex="1" parent="1">
          <mxGeometry x="210" y="860" width="60" height="30" as="geometry" />
        </mxCell>
        <mxCell id="CQruWPNJxI8brHRwqnNx-4" value="&lt;div&gt;MER2&lt;/div&gt;" style="text;html=1;strokeColor=none;fillColor=none;align=center;verticalAlign=middle;whiteSpace=wrap;rounded=0;" vertex="1" parent="1">
          <mxGeometry x="880" y="860" width="60" height="30" as="geometry" />
        </mxCell>
        <mxCell id="CQruWPNJxI8brHRwqnNx-5" value="" style="html=1;outlineConnect=0;fillColor=#CCCCCC;strokeColor=#6881B3;gradientColor=none;gradientDirection=north;strokeWidth=2;shape=mxgraph.networks.bus;gradientColor=none;gradientDirection=north;fontColor=#ffffff;perimeter=backbonePerimeter;backboneSize=20;" vertex="1" parent="1">
          <mxGeometry x="660" y="660" width="220" height="20" as="geometry" />
        </mxCell>
        <mxCell id="CQruWPNJxI8brHRwqnNx-6" value="" style="fontColor=#0066CC;verticalAlign=top;verticalLabelPosition=bottom;labelPosition=center;align=center;html=1;outlineConnect=0;fillColor=#CCCCCC;strokeColor=#6881B3;gradientColor=none;gradientDirection=north;strokeWidth=2;shape=mxgraph.networks.switch;" vertex="1" parent="1">
          <mxGeometry x="920" y="640" width="90" height="20" as="geometry" />
        </mxCell>
        <mxCell id="CQruWPNJxI8brHRwqnNx-7" value="" style="fontColor=#0066CC;verticalAlign=top;verticalLabelPosition=bottom;labelPosition=center;align=center;html=1;outlineConnect=0;fillColor=#CCCCCC;strokeColor=#6881B3;gradientColor=none;gradientDirection=north;strokeWidth=2;shape=mxgraph.networks.switch;" vertex="1" parent="1">
          <mxGeometry x="920" y="680" width="90" height="20" as="geometry" />
        </mxCell>
        <mxCell id="CQruWPNJxI8brHRwqnNx-8" value="" style="fontColor=#0066CC;verticalAlign=top;verticalLabelPosition=bottom;labelPosition=center;align=center;html=1;outlineConnect=0;fillColor=#CCCCCC;strokeColor=#6881B3;gradientColor=none;gradientDirection=north;strokeWidth=2;shape=mxgraph.networks.switch;" vertex="1" parent="1">
          <mxGeometry x="530" y="640" width="90" height="20" as="geometry" />
        </mxCell>
        <mxCell id="CQruWPNJxI8brHRwqnNx-9" value="" style="fontColor=#0066CC;verticalAlign=top;verticalLabelPosition=bottom;labelPosition=center;align=center;html=1;outlineConnect=0;fillColor=#CCCCCC;strokeColor=#6881B3;gradientColor=none;gradientDirection=north;strokeWidth=2;shape=mxgraph.networks.switch;" vertex="1" parent="1">
          <mxGeometry x="530" y="680" width="90" height="20" as="geometry" />
        </mxCell>
        <mxCell id="CQruWPNJxI8brHRwqnNx-11" value="" style="fontColor=#0066CC;verticalAlign=top;verticalLabelPosition=bottom;labelPosition=center;align=center;html=1;outlineConnect=0;fillColor=#CCCCCC;strokeColor=#6881B3;gradientColor=none;gradientDirection=north;strokeWidth=2;shape=mxgraph.networks.storage;" vertex="1" parent="1">
          <mxGeometry x="240" y="635" width="50" height="70" as="geometry" />
        </mxCell>
        <mxCell id="CQruWPNJxI8brHRwqnNx-12" value="" style="fontColor=#0066CC;verticalAlign=top;verticalLabelPosition=bottom;labelPosition=center;align=center;html=1;outlineConnect=0;fillColor=#CCCCCC;strokeColor=#6881B3;gradientColor=none;gradientDirection=north;strokeWidth=2;shape=mxgraph.networks.storage;" vertex="1" parent="1">
          <mxGeometry x="1260" y="632.5" width="50" height="67.5" as="geometry" />
        </mxCell>
        <mxCell id="CQruWPNJxI8brHRwqnNx-14" value="" style="sketch=0;pointerEvents=1;shadow=0;dashed=0;html=1;strokeColor=none;fillColor=#005F4B;labelPosition=center;verticalLabelPosition=bottom;verticalAlign=top;align=center;outlineConnect=0;shape=mxgraph.veeam2.vbr_server;" vertex="1" parent="1">
          <mxGeometry x="245" y="460" width="40" height="52" as="geometry" />
        </mxCell>
        <mxCell id="CQruWPNJxI8brHRwqnNx-16" value="" style="sketch=0;pointerEvents=1;shadow=0;dashed=0;html=1;strokeColor=none;fillColor=#005F4B;labelPosition=center;verticalLabelPosition=bottom;verticalAlign=top;align=center;outlineConnect=0;shape=mxgraph.veeam2.repository_server;" vertex="1" parent="1">
          <mxGeometry x="300" y="460" width="40" height="52" as="geometry" />
        </mxCell>
        <mxCell id="CQruWPNJxI8brHRwqnNx-17" value="" style="sketch=0;pointerEvents=1;shadow=0;dashed=0;html=1;strokeColor=none;fillColor=#005F4B;labelPosition=center;verticalLabelPosition=bottom;verticalAlign=top;align=center;outlineConnect=0;shape=mxgraph.veeam2.repository_server;" vertex="1" parent="1">
          <mxGeometry x="900" y="460" width="40" height="52" as="geometry" />
        </mxCell>
        <mxCell id="CQruWPNJxI8brHRwqnNx-19" value="SSD storage&lt;br&gt;Dual Controller" style="text;html=1;strokeColor=none;fillColor=none;align=center;verticalAlign=middle;whiteSpace=wrap;rounded=0;" vertex="1" parent="1">
          <mxGeometry x="222.5" y="710" width="85" height="30" as="geometry" />
        </mxCell>
        <mxCell id="CQruWPNJxI8brHRwqnNx-20" value="SSD storage&lt;br&gt;Dual Controller" style="text;html=1;strokeColor=none;fillColor=none;align=center;verticalAlign=middle;whiteSpace=wrap;rounded=0;" vertex="1" parent="1">
          <mxGeometry x="1240" y="710" width="85" height="30" as="geometry" />
        </mxCell>
        <mxCell id="CQruWPNJxI8brHRwqnNx-21" value="Mellanox&lt;br&gt;Redundant switch paar" style="text;html=1;strokeColor=none;fillColor=none;align=center;verticalAlign=middle;whiteSpace=wrap;rounded=0;" vertex="1" parent="1">
          <mxGeometry x="510" y="710" width="140" height="30" as="geometry" />
        </mxCell>
        <mxCell id="CQruWPNJxI8brHRwqnNx-22" value="Mellanox&lt;br&gt;Redundant switch paar" style="text;html=1;strokeColor=none;fillColor=none;align=center;verticalAlign=middle;whiteSpace=wrap;rounded=0;" vertex="1" parent="1">
          <mxGeometry x="895" y="710" width="140" height="30" as="geometry" />
        </mxCell>
        <mxCell id="CQruWPNJxI8brHRwqnNx-23" value="Veeam Repository" style="text;html=1;strokeColor=none;fillColor=none;align=center;verticalAlign=middle;whiteSpace=wrap;rounded=0;" vertex="1" parent="1">
          <mxGeometry x="890" y="520" width="60" height="30" as="geometry" />
        </mxCell>
        <mxCell id="CQruWPNJxI8brHRwqnNx-24" value="Veeam Repository" style="text;html=1;strokeColor=none;fillColor=none;align=center;verticalAlign=middle;whiteSpace=wrap;rounded=0;" vertex="1" parent="1">
          <mxGeometry x="290" y="520" width="60" height="30" as="geometry" />
        </mxCell>
        <mxCell id="CQruWPNJxI8brHRwqnNx-25" value="" style="endArrow=none;html=1;rounded=0;" edge="1" parent="1">
          <mxGeometry width="50" height="50" relative="1" as="geometry">
            <mxPoint x="939" y="685" as="sourcePoint" />
            <mxPoint x="939" y="655" as="targetPoint" />
          </mxGeometry>
        </mxCell>
        <mxCell id="CQruWPNJxI8brHRwqnNx-27" value="" style="endArrow=none;html=1;rounded=0;" edge="1" parent="1">
          <mxGeometry width="50" height="50" relative="1" as="geometry">
            <mxPoint x="600" y="685" as="sourcePoint" />
            <mxPoint x="600" y="655" as="targetPoint" />
            <Array as="points">
              <mxPoint x="600" y="665" />
            </Array>
          </mxGeometry>
        </mxCell>
        <mxCell id="CQruWPNJxI8brHRwqnNx-28" value="" style="image;aspect=fixed;html=1;points=[];align=center;fontSize=12;image=img/lib/azure2/storage/Data_Box_Edge.svg;" vertex="1" parent="1">
          <mxGeometry x="245" y="310" width="67" height="48" as="geometry" />
        </mxCell>
        <mxCell id="CQruWPNJxI8brHRwqnNx-29" value="" style="endArrow=none;html=1;rounded=0;exitX=0.725;exitY=0.942;exitDx=0;exitDy=0;exitPerimeter=0;" edge="1" parent="1" source="CQruWPNJxI8brHRwqnNx-14">
          <mxGeometry width="50" height="50" relative="1" as="geometry">
            <mxPoint x="270" y="428" as="sourcePoint" />
            <mxPoint x="270" y="358" as="targetPoint" />
          </mxGeometry>
        </mxCell>
        <mxCell id="CQruWPNJxI8brHRwqnNx-30" value="&lt;div&gt;Azure Blob&lt;/div&gt;&lt;div&gt;Offsite storage&lt;br&gt;&lt;/div&gt;" style="text;html=1;strokeColor=none;fillColor=none;align=center;verticalAlign=middle;whiteSpace=wrap;rounded=0;" vertex="1" parent="1">
          <mxGeometry x="312" y="319" width="100" height="30" as="geometry" />
        </mxCell>
        <mxCell id="CQruWPNJxI8brHRwqnNx-32" value="" style="sketch=0;pointerEvents=1;shadow=0;dashed=0;html=1;strokeColor=none;fillColor=#434445;aspect=fixed;labelPosition=center;verticalLabelPosition=bottom;verticalAlign=top;align=center;outlineConnect=0;shape=mxgraph.vvd.server;" vertex="1" parent="1">
          <mxGeometry x="370" y="676.6" width="90" height="23.4" as="geometry" />
        </mxCell>
        <mxCell id="CQruWPNJxI8brHRwqnNx-33" value="" style="sketch=0;pointerEvents=1;shadow=0;dashed=0;html=1;strokeColor=none;fillColor=#434445;aspect=fixed;labelPosition=center;verticalLabelPosition=bottom;verticalAlign=top;align=center;outlineConnect=0;shape=mxgraph.vvd.server;" vertex="1" parent="1">
          <mxGeometry x="370" y="640" width="90" height="23.4" as="geometry" />
        </mxCell>
        <mxCell id="CQruWPNJxI8brHRwqnNx-35" value="" style="sketch=0;pointerEvents=1;shadow=0;dashed=0;html=1;strokeColor=none;fillColor=#434445;aspect=fixed;labelPosition=center;verticalLabelPosition=bottom;verticalAlign=top;align=center;outlineConnect=0;shape=mxgraph.vvd.server;" vertex="1" parent="1">
          <mxGeometry x="1080" y="681.6" width="90" height="23.4" as="geometry" />
        </mxCell>
        <mxCell id="CQruWPNJxI8brHRwqnNx-36" value="" style="sketch=0;pointerEvents=1;shadow=0;dashed=0;html=1;strokeColor=none;fillColor=#434445;aspect=fixed;labelPosition=center;verticalLabelPosition=bottom;verticalAlign=top;align=center;outlineConnect=0;shape=mxgraph.vvd.server;" vertex="1" parent="1">
          <mxGeometry x="1080" y="645" width="90" height="23.4" as="geometry" />
        </mxCell>
        <mxCell id="CQruWPNJxI8brHRwqnNx-37" value="Hypervisor nodes" style="text;html=1;strokeColor=none;fillColor=none;align=center;verticalAlign=middle;whiteSpace=wrap;rounded=0;" vertex="1" parent="1">
          <mxGeometry x="385" y="710" width="60" height="30" as="geometry" />
        </mxCell>
        <mxCell id="CQruWPNJxI8brHRwqnNx-38" value="Hypervisor nodes" style="text;html=1;strokeColor=none;fillColor=none;align=center;verticalAlign=middle;whiteSpace=wrap;rounded=0;" vertex="1" parent="1">
          <mxGeometry x="1095" y="710" width="60" height="30" as="geometry" />
        </mxCell>
      </root>
    </mxGraphModel>
  </diagram>
</mxfile>
